<svg t="1690993307846" class="icon" viewBox="0 0 1024 1024" version="1.1" xmlns="http://www.w3.org/2000/svg" p-id="2646" width="200" height="200"><path d="M520 943.712a8 8 0 0 1-8-8v-416a8 8 0 0 1 8-8h416a8 8 0 0 1 8 8v416a8 8 0 0 1-8 8h-416z" fill="#80C33C" p-id="2647"></path><path d="M920 535.712v384h-384v-384h384m16-48h-416a32 32 0 0 0-32 32v416a32 32 0 0 0 32 32h416a32 32 0 0 0 32-32v-416a32 32 0 0 0-32-32z" fill="#3A7033" p-id="2648"></path><path d="M88 894.688a8 8 0 0 1-8-8v-416a8 8 0 0 1 8-8h416a8 8 0 0 1 8 8v416a8 8 0 0 1-8 8h-416z" fill="#E4001D" p-id="2649"></path><path d="M488 486.688v384h-384v-384h384m16-48h-416a32 32 0 0 0-32 32v416a32 32 0 0 0 32 32h416a32 32 0 0 0 32-32v-416a32 32 0 0 0-32-32z" fill="#8C031A" p-id="2650"></path><path d="M264.864 512.288a8 8 0 0 1-8-8v-416a8 8 0 0 1 8-8h416a8 8 0 0 1 8 8v416a8 8 0 0 1-8 8h-416z" fill="#2AB2EC" p-id="2651"></path><path d="M664.864 104.288v384h-384v-384h384m16-48h-416a32 32 0 0 0-32 32v416a32 32 0 0 0 32 32h416a32 32 0 0 0 32-32v-416a32 32 0 0 0-32-32z" fill="#0181B8" p-id="2652"></path></svg>