<svg t="1692376146737" class="icon" viewBox="0 0 1593 1024" version="1.1" xmlns="http://www.w3.org/2000/svg" p-id="11619" width="200" height="200"><path d="M796.922137 761.746565a250.235115 250.235115 0 1 1 250.235115-250.235115 250.430534 250.430534 0 0 1-250.235115 250.235115z m0-420.738931a170.503817 170.503817 0 1 0 170.503817 170.503816A171.090076 171.090076 0 0 0 796.922137 341.007634z" p-id="11620"></path><path d="M796.922137 1024c-332.21374 0-614.20458-250.235115-752.366412-398.851908a167.181679 167.181679 0 0 1 0-226.296184C183.108397 250.332824 465.294656 0 796.922137 0s614.20458 250.332824 752.366413 398.851908a167.181679 167.181679 0 0 1 0 226.296184c-138.161832 148.616794-420.152672 398.851908-752.366413 398.851908z m0-945.245802c-302.119084 0-564.372519 234.503817-694.912977 373.935878a86.082443 86.082443 0 0 0 0 117.251909C231.572519 709.569466 494.803053 943.877863 796.922137 943.877863s564.372519-234.503817 694.912978-373.935878a86.082443 86.082443 0 0 0 0-117.251909c-130.540458-139.627481-392.793893-373.935878-694.912978-373.935878z" p-id="11621"></path></svg>