<svg t="1691941126923" class="icon" viewBox="0 0 1024 1024" version="1.1" xmlns="http://www.w3.org/2000/svg" p-id="14660" width="200" height="200"><path d="M46.545455 186.181818a139.636364 139.636364 0 0 1 139.636363-139.636363h418.909091a139.636364 139.636364 0 0 1 139.636364 139.636363v418.909091a139.636364 139.636364 0 0 1-139.636364 139.636364H186.181818a139.636364 139.636364 0 0 1-139.636363-139.636364V186.181818z m46.545454 0v418.909091q0 38.539636 27.275636 65.815273T186.181818 698.181818h418.909091q38.539636 0 65.815273-27.275636T698.181818 605.090909V186.181818q0-38.539636-27.275636-65.815273T605.090909 93.090909H186.181818q-38.539636 0-65.815273 27.275636T93.090909 186.181818z" fill="#000000" p-id="14661"></path><path d="M389.818182 221.416727q25.460364 12.706909 25.460363 20.014546v3.584l-1.861818 21.876363q-19.968 0-47.243636-40.029091v-9.122909q3.630545 0 23.645091 3.677091z m85.457454 44.823273h5.445819q23.645091 0 29.090909 17.128727 0 11.962182-14.522182 11.962182h-40.029091l-5.445818 29.230546q-10.891636 47.476364-36.352 109.568 7.261091 29.230545 141.824 91.368727 29.090909 9.216 58.181818 21.969454v8.610909l-5.445818 10.752q-100.026182 0-207.313455-99.374545h-10.891636q-76.334545 80.011636-114.501818 80.011636h-16.430546q-25.413818 5.445818-29.090909-12.567272l41.844364-8.983273q43.613091-12.567273 99.979636-80.896v-7.121455q-12.706909-14.382545-54.504727-62.836363v-8.983273h20.014545q30.859636 29.090909 52.689455 50.920727 12.706909-5.445818 34.536727-94.999272v-19.223273H420.770909l-105.472 24.994909q-18.152727-9.728-18.152727-19.269818V298.821818l178.176-32.581818z" fill="#FF2222" p-id="14662"></path><path d="M666.205091 852.712727q0-2.327273 0.698182-4.980363 2.327273-9.216 5.399272-18.059637 3.165091-8.843636 5.632-17.594182 2.56-8.797091 4.189091-14.801454 1.675636-6.004364 2.978909-10.24 1.303273-4.328727 2.420364-7.447273 1.070545-3.165091 2.373818-6.190545l1.768728-3.770182q1.024-2.001455 2.14109-3.630546 1.210182-1.722182 2.46691-2.792727 1.256727-1.024 2.65309-1.024 2.792727 0 4.189091 0.977455 1.536 0.930909 1.861819 1.629091l0.60509 2.792727q1.070545-0.046545 2.699637-0.325818l3.258182-0.651637 3.118545-0.651636 2.187636-0.651636q4.514909-1.210182 8.378182-2.094546 3.770182-0.930909 7.168-1.908363 3.490909-1.070545 6.609455-1.489455 3.118545-0.512 6.376727-0.512 3.118545 0 5.073455 0.372364 2.001455 0.325818 3.118545 0.930909 1.210182 0.512 1.629091 1.349818 0.465455 0.744727 0.465455 1.629091 0 0.791273-0.465455 1.768727-0.465455 0.930909-1.536 1.722182-0.977455 0.837818-2.606545 1.442909-1.629091 0.605091-4.096 0.791273l-2.792728 0.558545-4.840727 0.791273-4.933818 0.837818q-2.327273 0.372364-3.165091 0.605091l-1.908364 0.558545-3.723636 1.117091q-2.141091 0.558545-4.747636 1.396364l-5.02691 1.536-4.608 1.396364-3.397818 1.117091q-4.142545 1.722182-6.516363 4.561454-2.327273 2.792727-3.723637 6.330182l-0.791272 2.187636-1.210182 3.537455q-0.605091 1.954909-1.396364 4.142545l-1.396364 4.049455-1.256727 3.490909-0.651636 2.327273-0.325818 1.210181-0.046546 0.837819q0 0.418909 0.232727 0.418909 0.977455 0 4.189091-0.930909 3.304727-0.930909 7.633455-2.327273l9.262545-2.885818 9.448728-2.978909q4.561455-1.349818 8.098909-2.234182 3.537455-0.930909 5.12-0.930909 2.373818 0 3.211636 0.791272 0.791273 0.744727 0.791273 1.722182 0 2.420364-1.722182 4.282182t-4.328727 3.211636q-0.791273 0.418909-3.025455 1.210182t-4.794182 1.582546l-4.840727 1.629091-3.351273 1.070545-10.891636 4.282182q-4.189091 1.675636-6.749091 2.792727l-4.002909 1.582546-2.606545 0.930909-2.653091 0.744727-3.956364 0.930909q-0.558545 1.396364-1.396364 4.328727l-1.582545 6.050909q-0.744727 3.118545-1.256727 5.818182-0.512 2.606545-0.512 3.677091 0 1.210182 0.325818 1.815273 0.372364 0.605091 0.791273 0.837818 0.512 0.139636 0.930909 0.139636h0.791272q3.258182 0 7.912728-0.930909 4.608-0.930909 9.122909-2.56 4.282182-1.489455 7.447272-3.258181l6.05091-3.258182q2.839273-1.582545 5.538909-2.606546 2.699636-1.070545 5.911272-1.117091 0.651636 0 1.582546 0.139637 0.930909 0.093091 1.722182 0.465454 0.837818 0.372364 1.303272 1.024 0.558545 0.558545 0.465455 1.536-0.325818 2.001455-2.048 3.909818-1.675636 1.861818-4.282182 3.677091-2.56 1.768727-5.818182 3.351273-3.165091 1.582545-6.516363 2.932364-3.304727 1.396364-6.516364 2.513454l-5.771636 1.861818q-6.283636 2.048-12.241455 3.025455-5.864727 0.930909-10.565818 0.930909-5.166545 0-7.959273-1.861818-2.792727-2.001455-2.792727-6.516364z m105.565091-75.915636q0.418909-1.861818 1.024-3.863273 0.605091-2.094545 1.629091-3.770182 1.024-1.722182 2.653091-2.885818t4.189091-1.163636q2.327273 0 4.235636 1.396363 1.861818 1.303273 3.351273 2.699637 1.768727 1.163636 3.397818 4.747636 1.675636 3.630545 3.397818 8.843637 1.722182 5.259636 3.723636 11.962181 2.048 6.609455 4.468364 13.917091 2.373818 7.214545 5.399273 14.801455 2.978909 7.540364 6.795636 14.754909l1.442909 2.606545q0.837818 1.489455 1.675637 2.792728 0.837818 1.303273 1.582545 2.187636 0.698182 0.930909 1.024 0.930909 0.232727 0 0.512-1.024l0.605091-2.466909 0.698182-2.978909q0.372364-1.489455 0.744727-2.466909l2.792727-7.261091q1.582545-4.096 3.444364-9.867636 1.861818-5.818182 4.096-13.777455 2.234182-7.912727 4.980364-18.850909 0.698182-2.653091 1.442909-6.050909 0.837818-3.444364 1.536-6.981818 0.698182-3.490909 1.256727-6.888728 0.558545-3.351273 0.744727-5.864727l0.046546-1.396364 0.232727-2.327272 0.465454-2.699637q0.279273-1.396364 0.744728-2.606545 0.465455-1.163636 1.117091-1.861818 0.698182-0.837818 1.629091-0.837818 0.930909 0 2.327272 0.279272 1.396364 0.279273 2.606546 0.837818 1.256727 1.768727 2.327272 4.328728 1.070545 2.466909 1.070546 6.749091 0 2.653091-0.558546 6.423272-0.512 3.723636-1.396363 8.052364l-1.908364 8.843636q-1.024 4.514909-2.141091 8.704-1.070545 4.142545-2.094545 7.586909l-1.675637 5.725091-2.56 8.238546q-1.303273 4.189091-2.932363 8.843636-1.582545 4.654545-3.444364 9.821091-1.861818 5.166545-4.189091 11.077818-1.070545 2.699636-2.373818 5.352728-1.303273 2.699636-3.025454 4.887272-1.722182 2.141091-3.863273 3.490909-2.141091 1.303273-4.794182 1.303273-1.582545 0-3.258182-0.465454-1.629091-0.418909-2.792727-1.768728-5.585455-6.609455-10.007273-14.894545-4.328727-8.378182-7.819636-17.501091-3.397818-9.076364-6.050909-18.338909-2.653091-9.309091-4.840728-17.826909l-0.418909-1.582546-0.558545-2.001454q-0.186182-1.024-0.465455-1.861818-0.186182-0.791273-0.512-1.303273-0.325818-0.512-0.744727-0.512-0.372364 0-1.024 1.536-0.605091 1.536-1.210182 3.490909l-1.117091 3.723636q-0.465455 1.861818-0.651636 2.327273l-1.396364 5.213091-2.187636 7.68-2.56 9.076364-2.746182 9.216q-1.256727 4.468364-2.466909 8.28509l-1.861818 6.05091-1.536 4.747636-1.768727 5.771636-1.629091 5.306182-0.930909 3.165091q-0.791273 2.653091-2.373819 4.049455-1.629091 1.349818-3.258181 1.349818-1.024 0-2.094546-0.744728-0.977455-0.698182-1.768727-1.815272-0.744727-1.024-1.303273-2.234182-0.465455-1.210182-0.465454-2.187636 0-0.558545 0.279272-1.768728l1.117091-4.189091 1.768728-7.261091 20.200727-67.025454z" fill="#080808" p-id="14663"></path><path d="M581.818182 884.363636v-93.090909a23.272727 23.272727 0 0 0-46.545455 0v93.090909q0 48.221091 34.071273 82.292364T651.636364 1000.727273h186.181818q48.221091 0 82.292363-34.071273T954.181818 884.363636v-186.181818q0-48.221091-34.071273-82.292363T837.818182 581.818182h-46.545455a23.272727 23.272727 0 0 0 0 46.545454h46.545455q28.904727 0 49.338182 20.48 20.48 20.433455 20.48 49.338182v186.181818q0 28.904727-20.48 49.338182-20.433455 20.48-49.338182 20.48h-186.181818q-28.904727 0-49.338182-20.48-20.48-20.433455-20.48-49.338182z" fill="#000000" p-id="14664"></path></svg>