<svg t="1692375804780" class="icon" viewBox="0 0 1024 1024" version="1.1" xmlns="http://www.w3.org/2000/svg" p-id="4867" width="200" height="200"><path d="M819.2 391.68l-12.8 0 0-120.32C793.6 120.32 668.16 0 512 0S230.4 120.32 217.6 271.36l0 120.32L204.8 391.68c-56.32 0-104.96 46.08-104.96 104.96l0 424.96C99.84 977.92 145.92 1024 204.8 1024L819.2 1024c56.32 0 104.96-46.08 104.96-104.96L924.16 494.08C924.16 437.76 878.08 391.68 819.2 391.68zM268.8 271.36C279.04 148.48 384 51.2 512 51.2s232.96 97.28 243.2 220.16l0 120.32L266.24 391.68 268.8 271.36zM872.96 919.04c0 28.16-23.04 53.76-53.76 53.76L204.8 972.8c-28.16 0-53.76-23.04-53.76-53.76L151.04 494.08c0-28.16 23.04-53.76 53.76-53.76l12.8 0 51.2 0 488.96 0 51.2 0L819.2 440.32c28.16 0 53.76 23.04 53.76 53.76L872.96 919.04z" p-id="4868"></path><path d="M509.44 565.76c-46.08 0-84.48 38.4-84.48 84.48 0 28.16 15.36 56.32 38.4 69.12L463.36 793.6c0 25.6 20.48 46.08 46.08 46.08s46.08-20.48 46.08-46.08l0-71.68c23.04-15.36 38.4-40.96 38.4-69.12C593.92 604.16 558.08 565.76 509.44 565.76zM532.48 704l0 25.6c0 0 0 0 2.56 0l-2.56 0L532.48 793.6c0 10.24-10.24 20.48-20.48 20.48s-20.48-10.24-20.48-20.48l0-61.44 0 0 0-25.6c-23.04-7.68-38.4-30.72-38.4-53.76 0-33.28 25.6-58.88 58.88-58.88s58.88 25.6 58.88 58.88C568.32 675.84 552.96 696.32 532.48 704z" p-id="4869"></path></svg>