<svg t="1691941157815" class="icon" viewBox="0 0 1024 1024" version="1.1" xmlns="http://www.w3.org/2000/svg" p-id="17409" width="200" height="200"><path d="M768 256h-298.666667c-28.458667-4.864-42.666667-19.114667-42.666666-42.666667s14.208-37.802667 42.666666-42.666666h384v384c0 28.458667-14.208 42.666667-42.666666 42.666666s-42.666667-14.208-42.666667-42.666666V256zM256 768h298.666667c28.458667 4.864 42.666667 19.114667 42.666666 42.666667s-14.208 37.802667-42.666666 42.666666H170.666667v-384c0-28.458667 14.208-42.666667 42.666666-42.666666s42.666667 14.208 42.666667 42.666666v298.666667z" fill="#000000" p-id="17410"></path><path d="M330.980664 632.679557m30.169889-30.169889l241.359115-241.359115q30.169889-30.169889 60.339779 0l0 0q30.169889 30.169889 0 60.339779l-241.359115 241.359115q-30.169889 30.169889-60.339779 0l0 0q-30.169889-30.169889 0-60.339779Z" fill="#000000" opacity=".3" p-id="17411"></path></svg>